<svg id="visual" viewBox="0 0 960 540" width="960" height="540" xmlns="http://www.w3.org/2000/svg" xmlns:xlink="http://www.w3.org/1999/xlink" version="1.1"><path d="M0 184L22.8 179.2C45.7 174.3 91.3 164.7 137 169.8C182.7 175 228.3 195 274 207.3C319.7 219.7 365.3 224.3 411.2 220.8C457 217.3 503 205.7 548.8 197.2C594.7 188.7 640.3 183.3 686 166.8C731.7 150.3 777.3 122.7 823 125.2C868.7 127.7 914.3 160.3 937.2 176.7L960 193L960 541L937.2 541C914.3 541 868.7 541 823 541C777.3 541 731.7 541 686 541C640.3 541 594.7 541 548.8 541C503 541 457 541 411.2 541C365.3 541 319.7 541 274 541C228.3 541 182.7 541 137 541C91.3 541 45.7 541 22.8 541L0 541Z" fill="#000d31"></path><path d="M0 262L22.8 262.2C45.7 262.3 91.3 262.7 137 264C182.7 265.3 228.3 267.7 274 255.5C319.7 243.3 365.3 216.7 411.2 201.7C457 186.7 503 183.3 548.8 200.2C594.7 217 640.3 254 686 267.5C731.7 281 777.3 271 823 257.7C868.7 244.3 914.3 227.7 937.2 219.3L960 211L960 541L937.2 541C914.3 541 868.7 541 823 541C777.3 541 731.7 541 686 541C640.3 541 594.7 541 548.8 541C503 541 457 541 411.2 541C365.3 541 319.7 541 274 541C228.3 541 182.7 541 137 541C91.3 541 45.7 541 22.8 541L0 541Z" fill="#032d50"></path><path d="M0 375L22.8 363.7C45.7 352.3 91.3 329.7 137 314.3C182.7 299 228.3 291 274 292.7C319.7 294.3 365.3 305.7 411.2 321C457 336.3 503 355.7 548.8 356.7C594.7 357.7 640.3 340.3 686 335.5C731.7 330.7 777.3 338.3 823 337.8C868.7 337.3 914.3 328.7 937.2 324.3L960 320L960 541L937.2 541C914.3 541 868.7 541 823 541C777.3 541 731.7 541 686 541C640.3 541 594.7 541 548.8 541C503 541 457 541 411.2 541C365.3 541 319.7 541 274 541C228.3 541 182.7 541 137 541C91.3 541 45.7 541 22.8 541L0 541Z" fill="#154d6f"></path><path d="M0 347L22.8 352.7C45.7 358.3 91.3 369.7 137 371C182.7 372.3 228.3 363.7 274 356.3C319.7 349 365.3 343 411.2 356.3C457 369.7 503 402.3 548.8 418.3C594.7 434.3 640.3 433.7 686 432.2C731.7 430.7 777.3 428.3 823 411C868.7 393.7 914.3 361.3 937.2 345.2L960 329L960 541L937.2 541C914.3 541 868.7 541 823 541C777.3 541 731.7 541 686 541C640.3 541 594.7 541 548.8 541C503 541 457 541 411.2 541C365.3 541 319.7 541 274 541C228.3 541 182.7 541 137 541C91.3 541 45.7 541 22.8 541L0 541Z" fill="#2d6f8c"></path><path d="M0 479L22.8 476.7C45.7 474.3 91.3 469.7 137 471.7C182.7 473.7 228.3 482.3 274 478.8C319.7 475.3 365.3 459.7 411.2 457.2C457 454.7 503 465.3 548.8 460.5C594.7 455.7 640.3 435.3 686 424C731.7 412.7 777.3 410.3 823 412.3C868.7 414.3 914.3 420.7 937.2 423.8L960 427L960 541L937.2 541C914.3 541 868.7 541 823 541C777.3 541 731.7 541 686 541C640.3 541 594.7 541 548.8 541C503 541 457 541 411.2 541C365.3 541 319.7 541 274 541C228.3 541 182.7 541 137 541C91.3 541 45.7 541 22.8 541L0 541Z" fill="#4b92a7"></path></svg>